<?xml version="1.0" encoding="UTF-8" standalone="no"?><!DOCTYPE svg PUBLIC "-//W3C//DTD SVG 1.1//EN" "http://www.w3.org/Graphics/SVG/1.1/DTD/svg11.dtd"><svg width="100%" height="100%" viewBox="0 0 863 896" version="1.1" xmlns="http://www.w3.org/2000/svg" xmlns:xlink="http://www.w3.org/1999/xlink" xml:space="preserve" xmlns:serif="http://www.serif.com/" style="fill-rule:evenodd;clip-rule:evenodd;stroke-linejoin:round;stroke-miterlimit:2;"><g><g><path d="M831.886,825.405l-744.219,54.843c-82.104,-411.669 -63.106,-768.554 -63.106,-768.554c-2.121,-29.216 19.885,-54.627 49.145,-56.751l649.62,-47.16c29.264,-2.125 55.345,28.492 57.466,57.708c-0,-0 71.239,332.752 51.094,759.914Z" style="fill:#7c85bc;fill-rule:nonzero;stroke:#0f0022;stroke-width:13.36px;"/><path d="M657.617,428.391c9.446,130.116 -88.136,243.237 -217.953,252.661c-129.816,9.425 -242.71,-88.416 -252.156,-218.532c-9.446,-130.116 88.132,-243.237 217.949,-252.661c129.817,-9.424 242.714,88.416 252.16,218.532" style="fill:#fcfceb;fill-rule:nonzero;stroke:#000;stroke-width:12.5px;"/><path d="M583.052,433.804c6.449,88.839 -60.176,166.075 -148.812,172.509c-88.636,6.435 -165.718,-60.368 -172.168,-149.207c-6.45,-88.842 60.176,-166.078 148.812,-172.512c88.636,-6.435 165.718,60.368 172.168,149.21" style="fill:#020202;fill-rule:nonzero;"/><path d="M572.057,434.603c6.008,82.753 -56.054,154.698 -138.616,160.691c-82.566,5.994 -154.369,-56.232 -160.376,-138.985c-6.008,-82.754 56.054,-154.699 138.62,-160.693c82.562,-5.993 154.365,56.234 160.372,138.987" style="fill:#48668d;fill-rule:nonzero;stroke:#555755;stroke-width:1px;"/><g><path d="M542.933,101.943c1.389,19.133 -12.961,35.77 -32.048,37.156c-19.091,1.386 -35.694,-13.004 -37.083,-32.137c-1.389,-19.133 12.961,-35.766 32.053,-37.152c19.087,-1.385 35.689,13 37.078,32.133" style="fill:#c4c4c4;fill-rule:nonzero;"/><path d="M530.539,102.843c0.89,12.272 -8.311,22.941 -20.558,23.831c-12.243,0.888 -22.893,-8.34 -23.784,-20.612c-0.891,-12.272 8.315,-22.941 20.558,-23.83c12.247,-0.889 22.893,8.339 23.784,20.611" style="fill:#7c85bc;fill-rule:nonzero;stroke:#7c85bc;stroke-width:1px;"/></g><g><path d="M629.74,95.642c1.389,19.133 -12.961,35.769 -32.048,37.155c-19.091,1.386 -35.694,-13.004 -37.083,-32.137c-1.389,-19.133 12.961,-35.765 32.053,-37.151c19.087,-1.386 35.689,13 37.078,32.133" style="fill:#c4c4c4;fill-rule:nonzero;"/><path d="M617.346,96.541c0.89,12.272 -8.311,22.941 -20.558,23.831c-12.243,0.888 -22.893,-8.34 -23.784,-20.612c-0.891,-12.271 8.315,-22.941 20.558,-23.83c12.247,-0.889 22.893,8.339 23.784,20.611" style="fill:#7c85bc;fill-rule:nonzero;"/></g><g><path d="M719.316,89.139c1.389,19.133 -12.961,35.769 -32.048,37.155c-19.091,1.386 -35.694,-13.004 -37.083,-32.137c-1.389,-19.133 12.962,-35.765 32.053,-37.151c19.087,-1.386 35.689,13 37.078,32.133" style="fill:#c4c4c4;fill-rule:nonzero;"/><path d="M706.922,90.038c0.89,12.272 -8.311,22.942 -20.558,23.831c-12.243,0.888 -22.893,-8.34 -23.784,-20.612c-0.891,-12.271 8.315,-22.941 20.558,-23.83c12.247,-0.889 22.893,8.34 23.784,20.611" style="fill:#7c85bc;fill-rule:nonzero;"/></g><g><path d="M376.814,153.476l-284.083,20.624c-14.139,1.026 -26.185,-6.254 -26.912,-16.265l-3.54,-48.768c-0.727,-10.007 10.141,-18.954 24.281,-19.981l284.082,-20.623c14.133,-1.026 26.186,6.258 26.912,16.265l3.541,48.767c0.726,10.011 -10.148,18.955 -24.281,19.981" style="fill:#202328;fill-rule:nonzero;"/><path d="M367.948,140.877l-266.43,19.342c-11.85,0.861 -21.901,-4.605 -22.453,-12.21l-2.26,-31.131c-0.552,-7.605 8.604,-14.465 20.454,-15.325l266.43,-19.342c11.851,-0.86 21.901,4.605 22.453,12.21l2.26,31.131c0.552,7.605 -8.603,14.465 -20.454,15.325" style="fill:#c4c4c4;fill-rule:nonzero;"/><path d="M827.43,819.445l-737.291,53.696c-6.229,-7.938 -18.204,-75.781 -21.83,-96.358l763.229,-54.925" style="fill:#c4c4c4;fill-rule:nonzero;stroke:#000;stroke-width:12.5px;"/></g><g><clipPath id="_clip1"><path d="M273.064,456.309c6.007,82.754 77.814,144.98 160.376,138.986c82.566,-5.994 144.624,-77.938 138.616,-160.691c-6.008,-82.758 -77.806,-144.981 -160.372,-138.987c-82.562,5.994 -144.628,77.935 -138.62,160.692Z" clip-rule="nonzero"/></clipPath><g clip-path="url(#_clip1)"><path d="M271.408,458.391c3.88,-6.986 12.488,-10.978 20.313,-9.42c7.829,1.554 14.269,8.539 15.196,16.48c5.804,-8.329 15.65,-13.685 25.782,-14.016c0.822,-19.402 18.79,-36.443 38.167,-36.187c2.158,0.031 4.444,0.216 6.355,-0.796c2.153,-1.138 3.288,-3.506 4.558,-5.582c5.853,-9.549 17.581,-15.113 28.662,-13.594c11.081,1.518 20.89,10.034 23.974,20.81c14.516,-13.365 41.056,-9.402 51.061,7.627c6.978,-9.359 19.511,-14.192 30.95,-11.939c11.439,2.253 21.221,11.481 24.152,22.795c15.446,-12.815 41.257,-10.085 53.702,5.68c13.066,16.556 10.207,40.409 4.662,60.768c-7.99,29.322 -20.567,58.058 -41.321,80.223c-18.241,19.485 -42.122,33.095 -67.349,41.749c-25.228,8.653 -51.849,12.549 -78.438,14.58c-22.854,1.747 -46.627,2.002 -67.736,-6.955c-10.655,-4.52 -20.242,-11.243 -29.243,-18.527c-21.903,-17.724 -41.015,-39.351 -53.504,-64.638c-9.428,-19.092 -14.933,-40.32 -14.921,-61.673c0.001,-6.492 -1.048,-18.176 2.536,-23.988c4.336,-7.028 16.213,-7.778 22.442,-3.397" style="fill:#96a9b7;fill-rule:nonzero;"/><path d="M411.43,471.706c4.873,-0.838 9.439,-4.575 11.2,-9.778c1.765,-5.209 0.351,-11.677 -3.639,-14.855c-2.204,-1.758 -4.941,-2.453 -7.628,-2.864c-4.912,-0.746 -10.555,-0.386 -13.975,3.726c-3.316,3.988 -5.247,15.132 -1.666,19.514c2.994,3.672 11.718,4.943 15.708,4.257" style="fill:none;fill-rule:nonzero;stroke:#e7edf1;stroke-width:5.42px;"/><path d="M522.619,545.987c3.07,-0.528 5.944,-2.884 7.056,-6.161c1.115,-3.281 0.222,-7.356 -2.292,-9.362c-1.388,-1.107 -3.112,-1.542 -4.806,-1.803c-3.096,-0.469 -6.652,-0.244 -8.803,2.348c-2.09,2.512 -3.31,9.535 -1.054,12.296c1.889,2.311 7.386,3.115 9.899,2.682" style="fill:#e7edf1;fill-rule:nonzero;"/><path d="M504.728,473.837c3.069,-0.528 5.944,-2.88 7.055,-6.161c1.116,-3.281 0.222,-7.356 -2.292,-9.363c-1.388,-1.106 -3.111,-1.541 -4.806,-1.802c-3.096,-0.469 -6.651,-0.244 -8.803,2.348c-2.09,2.512 -3.305,9.535 -1.054,12.296c1.889,2.311 7.387,3.115 9.9,2.682" style="fill:none;fill-rule:nonzero;stroke:#e7edf1;stroke-width:5.42px;"/><path d="M407.473,552.081c3.07,-0.527 5.945,-2.879 7.056,-6.16c1.115,-3.281 0.222,-7.356 -2.292,-9.363c-1.388,-1.106 -3.112,-1.541 -4.806,-1.802c-3.096,-0.469 -6.652,-0.244 -8.803,2.347c-2.09,2.512 -3.306,9.536 -1.054,12.296c1.889,2.311 7.387,3.115 9.899,2.682" style="fill:none;fill-rule:nonzero;stroke:#e7edf1;stroke-width:5.42px;"/><path d="M350.626,499.199c3.07,-0.528 5.945,-2.88 7.056,-6.161c1.115,-3.281 0.222,-7.356 -2.292,-9.362c-1.388,-1.107 -3.112,-1.542 -4.806,-1.803c-3.096,-0.469 -6.652,-0.244 -8.803,2.348c-2.09,2.512 -3.306,9.535 -1.054,12.296c1.889,2.311 7.386,3.115 9.899,2.682" style="fill:none;fill-rule:nonzero;stroke:#e7edf1;stroke-width:5.42px;"/><path d="M460.385,520.025c4.629,-0.8 8.967,-4.344 10.643,-9.291c1.675,-4.946 0.331,-11.09 -3.461,-14.115c-2.093,-1.67 -4.693,-2.325 -7.244,-2.716c-4.668,-0.71 -10.029,-0.371 -13.275,3.537c-3.154,3.792 -4.989,14.378 -1.587,18.543c2.848,3.486 11.132,4.693 14.924,4.042" style="fill:none;fill-rule:nonzero;stroke:#e7edf1;stroke-width:5.42px;"/><path d="M313.458,550.969c4.629,-0.8 8.967,-4.344 10.643,-9.291c1.675,-4.947 0.331,-11.09 -3.461,-14.116c-2.093,-1.669 -4.693,-2.324 -7.245,-2.715c-4.667,-0.71 -10.028,-0.371 -13.274,3.537c-3.155,3.792 -4.989,14.378 -1.587,18.542c2.848,3.487 11.132,4.694 14.924,4.043" style="fill:none;fill-rule:nonzero;stroke:#e7edf1;stroke-width:5.42px;"/></g></g><path d="M351.149,394.555c3.054,-0.526 5.913,-2.865 7.017,-6.128c1.108,-3.26 0.221,-7.314 -2.28,-9.305c-1.379,-1.103 -3.094,-1.534 -4.78,-1.792c-3.075,-0.47 -6.61,-0.247 -8.754,2.331c-2.079,2.499 -3.284,9.484 -1.042,12.229c1.875,2.299 7.339,3.097 9.839,2.665" style="fill:none;fill-rule:nonzero;stroke:#fcfceb;stroke-width:5.42px;"/><path d="M406.177,364.741c4.873,-0.838 9.435,-4.574 11.2,-9.778c1.765,-5.209 0.352,-11.677 -3.639,-14.855c-2.204,-1.758 -4.941,-2.453 -7.632,-2.863c-4.908,-0.747 -10.551,-0.387 -13.971,3.725c-3.315,3.988 -5.247,15.132 -1.666,19.514c2.994,3.672 11.718,4.943 15.708,4.257" style="fill:none;fill-rule:nonzero;stroke:#fcfceb;stroke-width:5.42px;"/><path d="M624.38,442.871l-34.554,2.508c-6.997,0.508 -13.179,-6.078 -13.806,-14.718c-0.627,-8.635 4.539,-16.045 11.536,-16.553l34.554,-2.509c6.997,-0.508 13.178,6.078 13.805,14.714c0.628,8.64 -4.538,16.05 -11.535,16.558" style="fill:#7a767c;fill-rule:nonzero;stroke:#000;stroke-width:6.25px;"/><path d="M489.148,395.226c4.873,-0.839 9.436,-4.575 11.201,-9.779c1.765,-5.208 0.351,-11.677 -3.64,-14.858c-2.203,-1.754 -4.94,-2.449 -7.631,-2.86c-4.908,-0.746 -10.551,-0.387 -13.971,3.726c-3.316,3.988 -5.247,15.132 -1.666,19.514c2.994,3.672 11.718,4.943 15.707,4.257" style="fill:none;fill-rule:nonzero;stroke:#fff;stroke-width:5.42px;"/></g></g></svg>